<svg width="914" height="684" viewBox="0 0 914 684" fill="none" xmlns="http://www.w3.org/2000/svg">
<path d="M794.588 51.1367C795.302 51.5648 796.159 51.9216 797.087 52.314C803.868 55.1682 810.577 58.4148 816.894 62.1251C819.856 63.8733 822.712 65.8712 825.424 67.9761C826.744 69.0464 828.101 70.1167 829.35 71.294C830.278 72.1146 832.062 74.612 833.347 74.719C835.56 74.9687 837.594 65.0505 838.093 63.1242C841.484 49.3174 846.266 19.0276 828.993 11.6068C826.53 10.5364 824.817 10.6078 822.355 11.6425C820.106 12.6057 818.036 13.9258 816.073 15.4242C807.579 21.9531 801.084 31.4075 796.016 40.719C794.981 42.6098 793.946 44.5721 793.126 46.5343C792.091 48.9961 792.911 50.2091 794.482 51.101L794.588 51.1367Z" fill="url(#paint0_linear_12_17)"/>
<path d="M268.389 544.309C270.923 539.35 273.385 534.356 275.598 529.254C281.201 516.446 286.234 503.388 290.694 490.152C292.8 483.837 294.798 477.558 296.654 471.172C297.653 467.819 298.546 464.501 299.473 461.111C301.543 453.44 303.256 449.302 293.728 449.337C289.017 449.337 284.27 449.266 279.523 449.052C271.493 448.695 263.463 447.981 255.505 446.768C247.011 445.448 238.588 443.522 230.38 441.024C227.275 440.061 224.098 438.563 220.958 439.954C217.496 441.453 215.462 446.126 213.285 449.016C203.756 461.574 192.193 472.349 179.988 482.267C177.025 484.693 173.992 487.048 170.958 489.367C168.103 491.579 166.212 493.791 166.819 497.608C167.461 501.64 169.317 505.742 170.423 509.667C171.601 513.877 172.636 518.194 173.564 522.474C175.384 531.073 176.704 539.742 177.561 548.483C178.453 557.224 179.31 565.608 178.382 574.1C177.418 582.591 174.92 590.94 175.384 599.359C175.776 606.53 177.704 613.737 180.63 620.302C186.233 632.86 195.084 641.6 208.217 645.811C221.351 650.021 234.734 650.342 248.011 650.342C255.648 650.342 263.322 650.092 270.959 649.985C272.957 649.985 284.235 651.341 284.342 648.629C284.449 645.882 277.953 642.315 276.169 641.102C274.598 639.996 267.175 636.713 267.104 634.573C271.315 632.682 278.56 637.641 281.629 640.138C284.306 642.279 286.197 645.097 288.767 647.345C291.336 649.593 293.977 649.95 297.189 649.878C298.867 649.878 303.542 650.092 303.934 647.773C304.256 646.025 301.65 643.991 300.544 643.028C298.581 641.244 296.511 639.603 294.334 638.033C292.835 636.927 288.981 635.108 288.802 633.181C291.979 632.717 296.44 635.036 299.152 636.535C303.649 638.925 306.397 643.385 310.679 646.061C314.213 648.273 314.748 645.24 314.391 642.172C313.713 637.106 311.607 632.075 309.323 627.58C304.933 619.017 298.509 609.955 288.766 607.387C280.165 605.104 271.1 606.852 262.357 605.496C245.333 602.82 249.901 583.591 254.541 572.53C258.574 562.897 263.57 553.657 268.352 544.346L268.389 544.309Z" fill="url(#paint1_linear_12_17)"/>
<path d="M114.816 677.555C115.03 677.341 114.994 677.056 114.744 676.556C113.174 673.346 110.248 670.812 107.5 668.672C106.393 667.816 105.287 666.959 104.323 665.925C104.038 665.639 103.11 664.676 103.395 664.248C103.645 663.855 105.108 664.07 105.501 664.105C109.141 664.355 112.032 666.745 114.53 669.207C116.993 671.669 119.313 674.487 122.275 676.449C125.237 678.412 128.699 678.554 132.089 678.126C133.445 677.948 135.158 677.591 135.444 675.986C135.694 674.701 134.909 673.381 134.302 672.311C132.553 669.314 130.162 666.781 128.306 663.82C128.021 663.356 126.093 660.216 126.843 659.646C127.235 659.324 128.377 659.967 128.699 660.109C129.519 660.466 130.197 660.93 130.911 661.429C133.802 663.641 135.908 666.745 138.049 669.671C138.977 670.919 139.833 672.204 140.833 673.417C141.725 674.487 143.01 675.843 144.473 676.021C146.65 676.271 147.293 673.096 147.507 671.526C148.006 667.816 147.114 664.069 146.008 660.538C144.866 657.006 143.402 653.795 141.511 650.691C138.121 645.125 133.481 640.345 127.985 636.813C124.915 634.886 121.596 633.317 118.17 632.246C114.53 631.069 110.747 630.605 106.964 630.248C101.004 629.678 94.4724 628.964 90.0823 624.362C85.5142 619.51 83.4799 612.517 82.9446 605.988C81.7668 591.325 87.4057 577.018 95.5071 565.031C99.4329 559.18 103.894 553.721 108.427 548.334C113.459 542.304 118.634 536.418 123.916 530.567C145.186 507.056 168.17 485.15 188.37 460.747C190.904 457.679 193.402 454.575 196.007 451.578C198.434 448.76 201.004 445.941 202.895 442.695C204.466 440.019 206.5 435.845 204.216 433.026C203.252 431.849 201.932 430.957 200.718 430.065C199.112 428.887 197.471 427.781 195.9 426.568C184.231 417.756 175.237 405.805 168.776 392.782C165.493 386.218 162.781 379.261 160.996 372.126C160.068 368.522 159.426 364.919 159.069 361.244C158.891 359.425 158.783 357.569 158.783 355.75C158.783 354.929 158.784 354.109 158.819 353.288C158.819 352.717 158.676 351.683 158.998 351.183C159.39 351.611 159.497 352.396 159.676 352.896C159.854 353.538 160.068 354.144 160.282 354.751C160.818 356.463 161.282 358.212 161.746 359.924C162.602 363.064 163.566 366.168 164.779 369.129C167.17 375.122 170.133 380.902 173.63 386.325C180.018 396.243 188.263 404.913 197.756 411.906C218.562 427.247 244.33 434.382 269.598 438.093C283.16 440.055 296.864 441.054 310.533 441.518C313.888 441.625 317.243 441.732 320.598 441.767C323.952 441.803 327.379 441.732 330.805 441.874C333.125 441.981 335.837 442.624 338.05 441.625C340.655 440.483 340.548 437.7 340.227 435.31C338.442 421.717 337.728 407.91 338.728 394.245C339.727 380.545 342.154 367.987 345.794 355.286C349.47 342.585 354.324 330.491 360.177 318.824C363.103 312.973 366.279 307.265 369.635 301.699C373.025 296.098 376.059 290.496 379.771 285.287C380.663 284.039 381.591 282.826 382.59 281.684C383.054 281.149 383.518 280.649 383.982 280.186C384.339 279.793 384.838 279.044 385.374 278.937C385.445 279.722 384.838 280.649 384.517 281.327C384.124 282.219 383.732 283.111 383.304 284.003C382.304 286.072 381.234 288.07 380.127 290.104C377.986 293.993 375.845 297.846 373.953 301.842C370.17 309.941 366.922 318.289 364.139 326.745C358.607 343.513 354.967 360.853 353.003 378.369C348.899 414.796 351.79 451.758 358.714 487.65C365.602 523.541 376.237 557.648 388.835 591.395C394.974 607.807 401.362 624.146 409.785 639.559C413.675 646.694 417.886 653.83 423.132 660.038C428.379 666.281 434.981 671.49 442.797 674.451C451.041 677.591 459.927 679.232 468.599 680.48C477.272 681.729 486.087 682.371 494.866 682.692C499.363 682.835 503.932 682.907 508.429 682.871C510.641 682.871 512.854 682.871 515.067 682.942C516.53 683.014 518.065 683.192 519.528 682.978C520.813 682.8 522.026 682.193 522.311 680.873C522.74 678.911 521.169 676.841 519.992 675.414C517.422 672.31 514.21 669.492 510.677 667.601C508.928 666.638 507.037 665.889 505.181 665.104C504.253 664.711 503.397 664.354 502.469 663.926C501.826 663.641 500.649 663.32 500.22 662.749C500.827 662.321 502.397 662.57 503.075 662.606C504.396 662.677 505.752 662.927 507.037 663.248C509.714 663.891 512.283 664.925 514.71 666.21C517.137 667.494 519.314 668.778 521.348 670.384C523.204 671.847 524.881 673.559 526.559 675.236C529.913 678.589 533.554 681.8 538.443 682.443C540.477 682.692 543.297 682.764 545.01 681.408C546.973 679.874 545.474 677.234 544.403 675.593C542.762 673.131 540.62 670.99 538.479 668.957C537.373 667.886 536.231 666.852 535.088 665.817C533.946 664.782 532.626 663.783 531.662 662.642C532.233 662 534.732 662.891 535.445 663.141C537.194 663.783 538.871 664.747 540.37 665.853C543.297 667.993 545.866 670.634 548.4 673.238C550.934 675.842 553.361 679.053 556.609 680.73C559.428 682.157 562.533 681.194 563.069 677.912C563.64 674.38 561.605 670.491 560.035 667.459C558.215 663.891 556.038 660.501 553.825 657.148C549.971 651.333 545.296 646.16 539.621 642.093C533.661 637.811 526.845 634.779 519.884 632.566C516.101 631.353 512.283 630.426 508.428 629.57C504.788 628.749 501.076 628.035 497.686 626.394C494.295 624.789 492.011 622.47 490.191 619.402C488.3 616.155 486.801 612.623 485.409 609.127C482.447 601.777 480.27 594.107 478.699 586.329C475.523 570.738 474.809 554.684 475.559 538.843C476.308 523.002 478.378 506.127 481.483 490.073C484.588 473.983 488.728 458.963 494.974 444.264C498.079 436.95 501.683 429.886 505.859 423.143C509.999 416.4 514.496 410.192 518.885 403.77C527.594 391.105 535.874 378.118 541.369 363.669C544.26 356.213 546.508 348.506 548.4 340.729C550.291 332.951 552.004 324.71 552.968 316.54C553.218 314.649 553.432 312.687 553.789 310.796C553.932 310.011 554.074 309.262 554.253 308.442C554.396 307.764 554.431 306.729 554.895 306.194C555.252 306.479 555.288 307.122 555.359 307.514C555.502 308.192 555.68 308.87 555.823 309.548C556.144 311.153 556.359 312.83 556.501 314.435C556.751 317.539 556.787 320.643 556.751 323.676C556.715 330.24 556.573 336.805 555.93 343.333C554.681 355.856 552.004 368.272 547.793 380.188C546.794 382.971 545.83 385.789 544.438 388.43C543.76 389.75 543.047 390.998 542.511 392.354C542.261 392.961 541.298 395.172 542.154 395.672C543.082 396.207 544.867 395.351 545.688 394.958C547.115 394.281 548.471 393.389 549.827 392.604C552.504 391.07 555.181 389.536 557.822 387.966C568.207 381.687 577.986 374.444 587.301 366.702C592.762 362.172 598.151 357.534 603.147 352.467C605.61 349.97 608.001 347.437 610.463 344.975C611.677 343.798 612.855 342.656 614.104 341.55C614.675 341.051 615.282 340.551 615.817 340.087C616.316 339.659 616.995 338.803 617.637 338.732C617.815 339.231 617.173 340.194 616.959 340.658C616.638 341.372 616.245 342.014 615.817 342.692C614.71 344.44 613.426 346.045 612.141 347.651C609.607 350.826 607.252 354.144 604.789 357.355C599.864 363.777 594.653 369.949 589.193 375.943C578.63 387.609 567.066 398.634 553.861 407.303C552.398 408.302 550.827 409.159 549.293 409.979C547.901 410.728 546.402 411.442 545.224 412.512C544.118 413.511 543.226 414.831 543.69 416.365C544.189 418.078 545.795 419.434 547.044 420.647C552.648 426.391 558.036 432.348 563.14 438.449C573.097 450.366 582.305 463.031 589.942 476.588C597.58 490.182 603.611 505.023 608.5 519.972C613.39 534.92 617.637 551.296 621.063 567.244C622.812 575.343 624.418 583.441 625.916 591.612C627.415 599.782 628.807 607.559 630.913 615.337C632.876 622.616 635.445 629.822 639.478 636.28C643.226 642.274 648.222 647.197 654.289 650.729C667.245 658.293 682.805 659.791 697.473 660.219C705.753 660.505 714.068 660.576 722.349 660.683C724.276 660.683 726.203 660.683 728.13 660.612C729.272 660.576 731.2 660.826 732.02 659.863C732.913 658.864 731.771 657.365 731.2 656.509C730.165 655.011 728.951 653.655 727.559 652.442C726.132 651.122 724.526 649.944 722.991 648.767C722.313 648.268 721.671 647.733 721.028 647.233C720.636 646.912 719.708 646.412 719.565 645.913C720.243 645.663 721.492 646.198 722.17 646.377C723.384 646.698 724.526 647.09 725.668 647.59C727.881 648.553 729.95 649.766 731.949 651.157C733.912 652.513 735.696 653.94 737.445 655.439C739.051 656.794 740.693 658.186 742.584 659.149C744.69 660.219 747.01 660.505 749.329 660.648C751.007 660.755 752.863 660.933 754.504 660.612C756.325 660.219 757.467 658.864 756.86 656.937C756.253 654.939 754.504 653.298 752.97 651.942C751.007 650.158 748.866 648.553 746.689 647.055C745.582 646.27 744.512 645.52 743.37 644.735C742.227 643.951 740.693 643.13 739.765 642.06C739.943 641.418 742.263 641.703 742.727 641.774C744.012 641.953 745.261 642.381 746.475 642.845C749.008 643.844 751.435 645.199 753.791 646.626C756.146 648.018 758.323 649.588 760.357 651.3C762.392 653.013 763.891 655.189 765.961 656.759C767.567 658.007 770.1 658.757 771.207 656.509C772.313 654.261 771.814 651.336 771.314 649.017C770.208 643.915 767.816 639.277 764.747 635.103C761.642 630.965 757.752 627.076 752.934 624.579C748.116 622.081 742.691 620.547 737.481 618.692C727.702 615.231 719.03 609.594 712.427 601.567C698.401 584.549 695.439 561.431 695.939 540.095C696.224 528.25 697.545 516.442 699.151 504.704C700.721 492.93 702.541 481.121 704.29 469.383C707.823 445.943 711.249 422.468 712.57 398.778C713.89 375.088 712.819 351.363 709.821 327.888C709.072 322.144 708.037 316.435 707.109 310.763C706.681 308.194 706.145 305.34 706.681 302.771C707.109 300.666 708.18 298.775 709.643 297.134C711.178 295.35 713.105 293.923 714.996 292.496C717.28 290.783 719.6 289.142 721.956 287.573C726.595 284.469 731.377 281.614 736.338 279.046C756.431 268.486 778.701 261.778 801.221 259.067C812.82 257.675 824.526 257.39 836.16 258.317C841.835 258.781 847.688 259.316 853.22 260.636C855.932 261.279 858.644 262.206 861.464 262.171C864.14 262.099 866.674 261.172 869.101 260.244C879.201 256.284 888.409 250.575 895.582 242.334C899.008 238.41 901.828 233.986 904.076 229.276C905.325 226.708 906.396 224.103 907.716 221.57C908.965 219.18 910.429 216.968 911.606 214.506C918.923 198.916 903.005 186.178 888.195 190.282C883.234 191.638 878.523 194.563 875.454 198.773C872.385 202.947 870.779 208.763 871.635 214.114C872.527 219.466 875.382 224.104 879.201 227.601C881.271 229.456 883.734 230.811 886.16 232.096C887.267 232.702 888.373 233.345 889.444 233.987C889.908 234.272 890.193 234.415 889.836 234.879C889.48 235.307 888.694 235.485 888.23 235.628C885.34 236.484 882.27 236.448 879.308 236.841C876.346 237.233 873.313 237.768 870.279 238.161C864.105 239.017 857.716 239.481 851.578 238.161C845.439 236.841 839.8 233.701 834.696 229.991C831.984 228.029 829.45 225.888 826.916 223.747C825.596 222.641 824.24 221.678 822.991 220.536C822.17 219.787 820.528 218.61 820.457 217.433C820.992 216.933 822.991 218.003 823.526 218.218C824.953 218.824 826.381 219.538 827.809 220.215C829.022 220.786 830.235 221.357 831.52 221.821C832.555 222.213 834.304 222.856 835.196 221.857C836.338 220.644 834.804 218.289 834.268 217.183C832.912 214.329 831.734 211.403 830.699 208.406C828.772 202.662 827.88 196.383 830.271 190.639C831.485 187.749 833.376 185.216 835.161 182.719C836.945 180.221 838.587 177.724 839.872 174.977C842.548 169.304 844.083 163.061 844.725 156.853C845.082 153.535 845.225 150.181 844.975 146.863C844.868 145.4 844.618 143.937 844.547 142.474C844.511 141.797 844.154 139.014 844.939 138.55C845.51 138.229 846.438 139.299 846.759 139.62C847.652 140.512 848.33 141.547 848.972 142.617C850.578 145.293 852.363 147.79 854.361 150.216C858.323 155.104 862.819 159.599 867.495 163.845C872.812 168.626 878.487 172.978 884.412 176.974C887.374 179.008 890.372 180.97 893.262 183.075C894.654 184.11 896.046 185.073 897.474 186.036C898.188 186.5 898.901 186.928 899.651 187.356C900.115 187.606 900.971 188.248 901.471 188.07C901.471 187.392 900.472 186.571 900.079 186.108C899.437 185.394 898.759 184.788 898.009 184.217C896.51 182.932 894.833 181.826 893.298 180.578C890.015 178.009 886.91 175.226 883.912 172.443C878.88 167.805 873.527 162.739 871.386 156.032C868.816 148.004 871.279 139.335 870.493 131.164C869.708 122.958 866.568 115.894 862.392 109.294C854.255 96.4868 842.62 86.2831 830.45 77.3278C817.674 67.9451 803.648 60.3453 789.052 54.2808C781.272 51.0341 773.312 48.2157 765.282 45.7183C757.252 43.2208 749.151 41.2229 741.014 39.225C736.982 38.226 733.056 36.692 728.952 36.0497C726.097 35.5859 722.742 35.8357 722.207 39.3321C721.6 43.1495 724.027 46.8599 724.384 50.6062C724.455 51.3911 724.455 52.2117 724.276 52.9609C724.169 53.389 723.848 54.5664 723.313 54.6734C722.742 54.7804 722.278 53.5317 722.064 53.1393C721.636 52.3187 721.314 51.4625 720.993 50.6062C720.279 48.6083 719.673 46.6104 718.887 44.6125C718.067 42.6503 717.21 40.6167 716.318 38.583C714.747 34.9797 713.034 31.4833 711.214 28.0231C707.574 21.2801 703.363 14.6802 697.831 9.25681C692.514 4.0836 685.483 -0.304875 677.739 0.0166179C670.744 0.302035 664.605 5.18983 660.608 10.6131C652.935 20.995 651.007 35.1589 651.971 47.7529C653.006 60.9889 657.967 74.7958 668.388 83.5017C669.78 84.7147 671.315 85.7137 672.814 86.784C673.599 87.3548 674.384 87.9257 675.134 88.4965C675.669 88.9246 676.704 89.4955 676.99 90.1377C676.633 90.5301 675.241 90.1377 674.812 89.995C673.706 89.7095 672.707 89.2814 671.672 88.782C669.495 87.7473 667.353 86.677 665.284 85.4283C661.358 83.0379 657.503 79.8627 654.684 76.2237C651.864 72.549 650.651 67.8753 647.082 64.9852C645.19 63.451 643.085 63.7364 640.908 64.557C638.766 65.3776 636.696 66.3766 634.698 67.5539C630.593 69.9799 626.632 72.7627 622.742 75.5455C618.816 78.3284 614.962 81.3609 611.357 84.6075C604.255 90.9937 597.795 98.0582 591.978 105.586C588.623 109.867 585.304 114.362 582.628 119.108C581.272 121.569 580.022 124.138 578.666 126.564C578.06 127.599 577.453 128.598 576.811 129.597C576.382 130.239 575.383 132.059 574.598 132.237C574.348 131.488 574.812 130.31 574.955 129.597C575.133 128.776 575.312 127.956 575.526 127.135C576.025 125.351 576.632 123.532 577.274 121.819C578.631 118.216 580.308 114.755 581.985 111.295C585.304 104.588 588.909 98.0233 593.228 91.851C601.472 79.9703 611.822 69.5529 623.885 61.5256C626.811 59.599 629.845 57.7795 632.985 56.1384C635.591 54.7826 638.731 54.0691 641.123 52.2852C642.372 51.3576 643.371 50.0732 643.121 48.3964C642.871 46.7553 641.694 45.7563 640.23 45.2568C636.875 44.0438 632.985 45.0071 629.523 44.9357C621.6 44.8287 613.606 43.2946 605.862 41.6178C598.118 39.9766 590.337 37.9431 582.593 36.0878C567.211 32.3417 551.686 29.7373 535.876 28.8811C520.065 27.9892 503.541 28.56 487.588 30.879C471.635 33.198 456.182 37.3008 440.729 41.5823C433.198 43.6516 425.704 45.8279 418.137 47.7545C410.571 49.6454 402.434 51.2152 394.476 52.4282C378.309 54.8899 361.999 56.1386 345.725 57.4586C329.415 58.7787 313.463 59.8847 297.366 61.1334C264.996 63.5951 232.591 66.592 200.685 72.7281C185.232 75.6893 169.957 79.6494 155.182 85.1796C140.442 90.7095 126.666 97.5598 113.604 105.943C87.9791 122.426 66.2802 144.546 49.3642 169.77C32.4117 194.958 19.5641 224.783 12.4259 255.11C8.74998 270.772 6.46588 286.719 5.64498 302.775C4.78845 318.829 5.64498 335.063 7.07254 351.153C9.96338 383.548 15.0669 415.693 17.4935 448.158C18.7069 464.177 19.1708 480.196 18.5642 496.251C17.9218 512.305 16.2801 528.467 12.5684 544.165C10.7483 551.943 8.2144 559.471 5.46637 566.999C2.89676 573.991 0.148729 581.269 0.0059272 588.833C-0.136874 596.396 2.32574 604.459 4.68119 611.88C7.03663 619.301 9.39208 626.971 12.2829 634.356C17.4935 647.807 24.881 661.471 37.7651 668.891C50.6492 676.311 66.9942 678.024 81.9121 678.595C90.0135 678.916 98.1145 678.595 106.217 678.631C108.037 678.631 109.928 678.738 111.748 678.488C112.641 678.381 113.533 678.203 114.354 677.846C114.604 677.739 114.782 677.632 114.889 677.525L114.816 677.555ZM861.503 132.478C864.394 132.121 863.609 139.649 863.109 140.862C862.895 141.397 862.146 143.11 861.503 143.217C860.683 143.36 859.755 141.826 859.505 141.219C858.684 139.292 859.005 137.009 859.826 135.118C860.005 134.69 860.219 134.262 860.468 133.834C860.647 133.513 861.111 132.478 861.503 132.443V132.478ZM798.477 141.112C799.227 137.865 801.975 134.94 805.579 134.654C814.002 134.012 817 146.107 809.291 149.425C806.614 150.602 803.331 150.103 801.011 148.355C798.513 146.535 797.87 143.681 798.477 141.076V141.112ZM626.494 167.228C626.494 170.189 625.995 173.186 625.745 176.111C625.459 179.322 625.245 182.533 625.102 185.744C624.817 192.024 624.853 198.303 625.959 204.511C626.887 209.719 627.779 214.786 629.563 219.781C631.312 224.776 633.561 229.414 636.344 233.873C647.087 251.034 665.145 263.842 685.417 266.482C691.163 267.231 696.802 267.053 702.512 266.268C705.474 265.876 708.4 265.483 711.327 264.948C713.897 264.449 716.787 263.521 719.393 263.842C715.824 266.482 710.934 267.945 706.794 269.55C702.869 271.049 698.907 272.619 694.839 273.832C688.343 275.794 681.669 277.078 674.924 277.257C663.575 277.578 652.333 274.581 643.018 268.016C624.281 254.745 616.644 230.626 616.858 208.579C616.929 201.515 617.786 194.415 619.356 187.529C620.177 184.068 621.105 180.643 622.283 177.29C622.889 175.613 623.532 173.9 624.174 172.259C624.531 171.403 624.888 170.618 625.245 169.762C625.53 169.084 625.923 167.764 626.494 167.336L626.494 167.228ZM321.458 215.891C331.879 181.392 348.974 147.391 374.099 121.06L374.563 120.56C421.066 69.2922 491.911 53.9153 557.93 68.9003C533.876 67.5803 509.607 69.3641 486.159 75.1438C409.821 92.4469 354.715 146.747 322.244 216.245C321.923 216.744 321.53 217.565 321.173 217.85C320.888 218.064 321.031 217.244 321.423 215.888L321.458 215.891Z" fill="url(#paint2_linear_12_17)"/>
<defs>
<linearGradient id="paint0_linear_12_17" x1="792.665" y1="42.7792" x2="841.38" y2="42.7792" gradientUnits="userSpaceOnUse">
<stop stop-color="#F7F0FF"/>
<stop offset="1" stop-color="#DBBBFF"/>
</linearGradient>
<linearGradient id="paint1_linear_12_17" x1="166.705" y1="544.866" x2="314.485" y2="544.866" gradientUnits="userSpaceOnUse">
<stop stop-color="#F7F0FF"/>
<stop offset="1" stop-color="#DBBBFF"/>
</linearGradient>
<linearGradient id="paint2_linear_12_17" x1="0" y1="341.54" x2="913.443" y2="341.54" gradientUnits="userSpaceOnUse">
<stop stop-color="#F7F0FF"/>
<stop offset="1" stop-color="#DBBBFF"/>
</linearGradient>
</defs>
</svg>
