<svg width="1506" height="843" viewBox="0 0 1506 843" fill="none" xmlns="http://www.w3.org/2000/svg">
<g clip-path="url(#clip0_12_11)">
<path d="M506.887 259.762C506.506 261.076 505.955 262.389 505.743 263.744C503.455 278.232 501.379 292.72 503.328 307.504C504.091 313.35 504.43 319.281 505.489 325.127C507.311 334.912 510.193 344.317 514.727 353.17C515.617 354.949 516.634 356.644 517.481 358.423C519.346 362.363 519.176 363.379 515.998 366.599C515.023 367.616 513.964 368.548 512.862 369.48C496.845 383.332 480.446 396.718 463.792 409.808C454.682 416.967 445.444 423.957 436.249 430.989C434.469 432.344 432.604 433.658 430.655 434.844C428.155 436.369 426.163 435.31 426.036 432.387C425.697 423.914 425.401 415.485 425.146 407.012C424.765 394.261 422.689 381.722 419.511 369.395C416.968 359.482 413.07 350.12 407.01 341.775C406.035 340.462 405.315 338.81 402.857 338.428C403.874 344.613 404.849 350.671 405.908 356.644C407.985 368.082 409.129 379.562 409.044 391.169C409.002 397.396 409.086 403.581 409.002 409.808C408.747 430.015 405.824 449.755 398.366 468.649C397.052 471.995 397.094 475.088 398.196 478.519C402.222 490.889 405.061 503.512 406.332 516.517C406.925 522.533 406.629 528.336 405.485 534.182C404.298 540.325 401.162 545.027 395.865 548.501C385.526 555.321 374.042 559.049 362.093 561.548C358.788 562.226 355.398 562.776 352.05 563.073C345.397 563.624 339.761 561.548 335.736 556.041C332.897 552.186 330.185 548.204 327.557 544.18C318.32 529.988 309.76 515.331 299.59 501.775C297.217 498.598 294.844 495.464 292.386 492.371C285.691 483.856 277.894 476.613 269.165 470.258C259.122 462.93 249.418 455.22 241.452 445.477C236.579 439.546 232.299 433.234 229.036 426.329C222.383 412.307 212.722 400.658 201.577 390.067C200.009 388.542 197.255 387.399 197.763 384.899C198.399 381.849 201.662 382.23 203.992 381.764C206.45 381.256 208.993 381.214 211.62 380.96C211.154 378.969 209.544 379.223 208.357 379.053C199.119 377.952 189.839 376.893 180.602 375.876C178.949 375.707 177.169 375.537 175.559 375.792C156.321 378.926 137.252 382.866 119.031 390.067C112.675 392.567 106.7 395.659 101.149 399.641C91.7416 406.461 81.5717 412.011 70.978 416.755C58.1808 422.517 44.8327 425.651 30.6372 424.508C19.8316 423.618 10.4668 419.467 2.41557 412.307C1.61045 411.587 0.97483 410.613 0.296833 409.681C-0.338789 408.791 0.466333 407.139 1.56808 407.054C3.26307 406.97 5.00043 406.758 6.61067 407.097C21.2724 410.105 34.6204 406.292 47.3752 399.472C56.3587 394.642 64.4946 388.5 71.8255 381.426C83.6057 370.03 95.6401 358.931 108.183 348.383C122.972 335.971 138.693 325.127 156.49 317.417C167.762 312.545 179.542 309.792 191.704 308.733C200.814 307.928 209.713 309.538 218.527 311.698C219.841 312.037 221.197 312.333 222.553 312.672C222.637 312.079 222.764 311.698 222.68 311.613C219.035 308.479 215.391 305.386 211.747 302.294C209.586 300.472 207.298 298.82 205.221 296.914C203.06 294.923 202.933 293.483 204.755 290.983C206.577 288.484 208.569 286.069 210.645 283.739C229.968 261.965 250.435 241.293 271.284 221.001C309.209 184.147 349.592 150.13 392.348 118.994C426.418 94.2126 461.97 71.6761 499.514 52.4438C542.652 30.3733 587.484 12.6237 635.071 2.54161C638.673 1.7791 642.233 0.974234 645.877 0.381168C655.453 -1.27094 659.098 0.677701 663.462 9.48896C665.242 13.0473 666.513 16.7752 667.234 20.6725C668.081 25.3323 670.539 28.7212 674.226 31.7713C709.142 60.4926 745.415 87.3923 782.493 113.275C814.486 135.6 847.242 156.654 880.887 176.394C926.016 202.913 972.459 226.72 1021.36 245.487C1039.58 252.476 1058.14 258.365 1076.87 263.66C1077.93 263.956 1079.03 264.338 1080.22 263.617C1079.63 261.245 1077.29 261.288 1075.68 260.61C1063.44 255.399 1051.62 249.426 1039.79 243.368C1038.06 242.479 1036.4 241.335 1034.83 240.234C1034.5 240.022 1034.37 239.175 1034.5 238.709C1034.62 238.243 1035.13 237.65 1035.51 237.565C1040.85 236.675 1046.23 237.099 1051.57 237.65C1076.62 240.149 1101.36 244.343 1125.73 250.697C1154.76 258.28 1182.98 268.108 1210.31 280.562C1217.77 283.951 1225.1 287.594 1232.56 290.983C1235.35 292.254 1238.28 293.44 1241.28 294.245C1250.27 296.66 1259.34 298.82 1268.32 301.235C1279.46 304.2 1290.69 303.776 1301.97 302.675C1312.09 301.701 1322.22 300.938 1332.31 299.879C1350.32 297.973 1368.41 298.1 1386.46 298.142C1393.83 298.185 1401.12 299.074 1408.37 300.26C1416.5 301.574 1424.17 304.369 1431.29 308.648C1445.02 316.951 1456.25 327.923 1466.17 340.419C1486.13 365.498 1498.03 394.134 1503.97 425.482C1505.45 433.319 1506.17 441.156 1505.62 449.077C1505.07 457.507 1502.19 465.048 1496.38 471.317C1486.8 481.696 1472.82 484.619 1460.07 478.561C1451.38 474.452 1442.9 470.004 1433.88 466.573C1421.42 461.828 1408.75 458.058 1395.66 455.728C1388.11 454.373 1380.49 454.373 1372.86 455.05C1368.92 455.389 1365.15 456.575 1362.1 459.075C1361.8 461.32 1363.58 461.447 1364.72 462.082C1377.18 468.86 1381.97 479.281 1379.17 493.176C1377.44 501.818 1373.75 509.782 1370.87 518.042C1368.92 523.634 1366.84 529.184 1364.85 534.775C1362.48 541.468 1361.33 548.416 1361.16 555.533C1361.16 556.337 1360.74 557.269 1359.64 557.185C1359.13 557.142 1358.49 556.888 1358.2 556.465C1357.52 555.575 1356.88 554.601 1356.42 553.584C1347.65 533.97 1339.34 514.23 1334.47 493.176C1332.22 483.475 1331.29 473.69 1331.84 463.777C1332.35 454.373 1336.37 446.917 1344.34 441.876C1352.98 436.411 1362.05 431.963 1372.18 429.845C1379.77 428.235 1387.27 428.278 1394.89 429.718C1408.03 432.217 1420.32 437.216 1432.73 441.918C1440.91 445.011 1449.13 448.018 1457.35 451.068C1460.02 452.085 1462.82 452.551 1465.66 452.424C1469.18 452.297 1470.83 450.941 1471.13 447.298C1471.68 440.817 1471.51 434.251 1470.41 427.854C1464.77 395.108 1447.23 370.835 1418.07 354.865C1412.52 351.815 1406.55 350.205 1400.28 349.824C1389.81 349.146 1379.34 349.527 1369.17 352.238C1355.23 355.966 1340.87 357.449 1326.67 359.736C1318.03 361.134 1309.34 361.982 1300.61 362.829C1295.82 363.295 1291.03 363.168 1286.2 363.252C1280.23 363.379 1275.27 361.346 1271.07 356.941C1262.85 348.341 1253.74 340.716 1244 333.938C1233.06 326.313 1221.41 320.043 1208.23 316.951C1202.68 315.68 1197.22 315.807 1191.45 316.061C1192.34 318.942 1194.72 318.73 1196.37 319.45C1215.52 327.711 1232.64 339.021 1247.56 353.552C1271.12 376.512 1285.65 404.428 1291.92 436.665C1294.3 448.866 1295.74 461.193 1295.48 473.69C1295.31 481.611 1295.44 489.491 1295.48 497.412C1295.48 499.954 1295.57 502.496 1295.74 505.037C1296.29 513.001 1299.38 519.567 1305.78 524.778C1315.4 532.615 1324.59 541.003 1334.21 548.839C1338.62 552.44 1340.91 556.422 1341.5 562.353C1344.85 596.369 1350.4 630.047 1359.76 663.005C1364.93 681.262 1371.59 698.927 1380.91 715.533C1383.33 719.812 1384.64 724.217 1385.44 729.047C1388.92 749.931 1392.69 770.731 1396.25 791.615C1397.35 798.012 1398.28 804.451 1398.79 810.89C1399.3 817.032 1398.33 818.43 1392.48 820.124C1386.8 821.777 1380.99 823.005 1375.15 824.022C1353.07 827.877 1330.78 828.47 1308.45 827.58C1302.22 827.326 1296.12 826.182 1290.19 824.149C1288.07 823.429 1285.99 822.454 1284.04 821.311C1278.57 818.133 1277.81 816.015 1280.35 810.254C1283.41 803.264 1286.92 796.487 1291.2 790.132C1297.81 780.304 1304.17 770.222 1311.5 760.945C1316.42 754.76 1317.47 748.406 1316.25 741.204C1313.83 727.267 1310.48 713.585 1305.65 700.283C1294.13 668.639 1274.25 643.094 1248.36 621.914C1223.53 601.622 1195.35 587.643 1164.88 578.027C1153.57 574.468 1142.09 571.503 1131.28 566.462C1093.31 548.839 1061.15 524.227 1038.82 488.304C1025.43 466.785 1018.31 443.189 1018.22 417.687C1018.18 410.105 1018.05 402.522 1019.58 394.939C1018.14 395.066 1017.93 395.913 1017.59 396.676C1014.79 403.538 1013.22 410.74 1012.63 418.069C1010.38 445.35 1014.41 471.614 1026.49 496.311C1034.07 511.773 1044.54 524.905 1058.9 534.733C1060.05 535.538 1061.19 536.385 1062.25 537.275C1063.44 538.291 1063.48 540.113 1062.21 540.918C1058.65 543.205 1055.09 545.493 1051.32 547.442C1037.34 554.812 1023.1 561.717 1008.56 567.945C974.493 582.517 939.703 594.971 903.388 602.766C889.574 605.731 875.718 608.231 861.607 609.247C854.869 609.713 848.132 610.476 841.352 610.603C811.774 611.154 784.4 603.91 758.975 588.787C739.017 576.925 719.778 564.132 702.659 548.331C701.43 547.187 700.074 546.128 698.718 545.112C698.294 544.773 697.701 544.688 697.15 544.434C695.709 545.535 697.065 546.425 697.574 547.145C702.956 554.77 708.38 562.311 713.804 569.893C714.609 571.037 715.499 572.138 716.261 573.325C717.321 574.977 718.846 576.629 717.617 578.705C716.643 580.357 714.651 580.145 712.998 580.102C705.922 579.975 698.845 580.018 691.811 579.425C685.879 578.916 679.988 578.577 674.056 578.45C665.03 578.239 655.962 578.366 646.979 577.095C644.733 576.798 642.444 577.01 640.199 576.798C634.69 576.332 629.69 577.561 624.774 580.187C619.816 582.814 614.519 584.889 609.307 587.05C601.129 590.439 592.569 592.303 583.798 592.896C573.543 593.574 563.882 591.201 556.932 583.068C546.593 570.952 533.711 562.565 519.557 555.871C502.396 547.78 484.598 541.511 465.953 537.614C457.563 535.834 449.215 535.284 440.698 535.834C439.003 535.961 437.308 536.131 435.613 536.004C434.045 535.919 433.028 534.86 432.859 533.293C432.732 532.191 432.901 531.047 432.943 529.946C433.028 527.955 433.41 525.964 433.155 524.015C432.054 515.543 433.028 507.113 433.282 498.683C433.621 485.932 435.528 473.393 436.927 460.769C437.393 456.491 439.596 453.483 442.732 450.857C451.419 443.655 460.063 436.369 468.75 429.125C489.81 411.587 510.871 394.092 531.931 376.554C532.567 376.003 533.245 375.495 533.838 374.902C536.465 372.403 536.677 371.386 534.982 368.293C532.906 364.608 530.575 361.05 528.583 357.322C518.329 338.005 510.489 317.841 507.269 296.024C505.913 287.086 505.913 272.174 506.887 259.762ZM638.8 511.434C638.546 510.926 638.249 510.417 637.995 509.909C633.376 511.9 628.757 513.806 624.181 515.924C620.791 517.492 617.74 517.195 614.477 515.501C596.722 506.223 578.925 497.031 561.127 487.796C560.153 487.288 559.178 486.652 558.288 485.974C557.102 485.043 556.847 483.179 557.907 482.247C559.39 480.933 560.915 479.663 562.568 478.646C568.289 475.003 574.433 472.08 580.704 469.538C592.993 464.497 605.705 460.642 618.587 457.423C650.411 449.501 682.785 444.841 715.456 442.172C718.549 441.918 721.6 441.24 724.694 440.986C728.465 440.647 729.948 438.529 730.542 435.013C732.109 425.27 733.084 415.4 733.381 405.572C733.804 392.609 733.593 379.604 733.635 366.641C733.635 362.236 733.465 357.83 733.338 353.424C732.067 356.051 731.347 358.762 731.262 361.516C730.965 371.132 729.398 380.578 727.618 390.025C725.245 402.522 721.6 414.68 717.787 426.795C716.176 431.963 713.592 434.759 707.829 435.225C699.142 435.945 690.455 437.216 681.853 438.783C645.411 445.265 609.477 453.78 574.263 465.217C559.475 470.046 544.94 475.426 530.872 482.035C526.549 484.068 522.185 486.144 518.413 489.152C518.074 489.406 517.863 490.211 517.99 490.592C518.117 491.016 518.71 491.397 519.176 491.524C519.981 491.736 520.871 491.736 521.676 491.778C531.083 492.244 539.982 494.447 548.669 498.132C568.67 506.605 588.84 514.696 608.968 522.914C611.299 523.888 613.714 524.736 616.045 525.71C618.079 526.557 619.901 526.303 621.596 524.99C627.317 520.415 633.08 515.924 638.8 511.434ZM288.234 425.482C288.022 420.822 288.191 417.137 286.962 413.663C286.327 411.884 285.691 409.723 283.191 409.808C280.818 409.85 280.098 411.884 279.25 413.663C278.911 414.425 278.699 415.23 278.572 416.078C277.682 421.923 277.767 427.769 278.657 433.615C278.953 435.564 279.801 437.343 281.157 438.826C282.089 439.8 283.954 439.8 284.886 438.868C286.327 437.428 287.132 435.606 287.386 433.7C287.852 430.608 288.022 427.515 288.234 425.482Z" fill="url(#paint0_linear_12_11)"/>
<path d="M797.409 728.835C783.256 727.945 769.441 726.802 756.687 720.744C754.398 719.685 752.195 718.414 750.076 717.058C748.508 716.042 748.296 714.051 749.525 712.61C751.008 710.916 752.619 709.306 754.229 707.739C763.975 698.25 772.153 687.448 780.459 676.772C784.103 672.07 784.866 667.537 782.747 661.861C777.916 648.898 773.637 635.766 769.145 622.676C768.34 620.304 767.662 617.847 767.153 615.348C766.772 613.484 768.297 612.001 770.204 612.382C775.459 613.357 780.713 614.543 785.968 615.602C800.883 618.694 815.799 621.871 830.927 623.82C832.326 623.99 833.682 624.456 835.08 624.625C838.851 625.091 841.14 627.04 842.453 630.64C844.275 635.681 846.479 640.595 848.386 645.594C848.979 647.161 849.445 648.814 849.614 650.466C850.165 655.803 850.759 661.141 850.97 666.478C851.606 681.729 852.665 696.894 856.225 711.763C856.988 714.983 856.267 716.254 853.174 717.863C851.437 718.753 849.614 719.6 847.75 720.236C835.927 724.218 823.808 726.802 811.392 727.818C806.646 728.2 801.858 728.496 797.409 728.835Z" fill="url(#paint1_linear_12_11)"/>
</g>
<defs>
<linearGradient id="paint0_linear_12_11" x1="752.938" y1="-0.153076" x2="752.938" y2="827.942" gradientUnits="userSpaceOnUse">
<stop stop-color="#DBBBFF"/>
<stop offset="1" stop-color="#F6F6F6"/>
</linearGradient>
<linearGradient id="paint1_linear_12_11" x1="802.619" y1="612.322" x2="802.619" y2="728.835" gradientUnits="userSpaceOnUse">
<stop stop-color="#DBBBFF"/>
<stop offset="1" stop-color="#F6F6F6"/>
</linearGradient>
<clipPath id="clip0_12_11">
<rect width="1506" height="843" fill="white"/>
</clipPath>
</defs>
</svg>
