<svg width="400" height="400" viewBox="0 0 400 400" fill="none" xmlns="http://www.w3.org/2000/svg">
<g clip-path="url(#clip0_1_4)">
<path d="M0 0C132 0 264 0 400 0C400 132 400 264 400 400C268 400 136 400 0 400C0 268 0 136 0 0Z" fill="black"/>
<path d="M320 80.375C320.66 80.3415 321.32 80.308 322 80.2734C325.364 81.4957 326.312 83.9451 328 87C328.95 89.621 329.771 92.135 330.5 94.8125C330.709 95.5539 330.917 96.2952 331.132 97.0591C331.773 99.3684 332.391 101.682 333 104C333.186 104.707 333.372 105.413 333.563 106.141C335.83 114.908 337.517 123.689 338.858 132.641C339.746 138.541 340.798 144.394 341.938 150.25C343.391 157.761 344.796 165.278 346.125 172.812C346.283 173.694 346.442 174.575 346.605 175.483C348.032 183.646 348.968 191.743 350 200C330.2 200 310.4 200 290 200C290 194.002 290.131 188.84 290.938 183C291.112 181.701 291.286 180.401 291.465 179.062C292 176 292 176 293 175C293.274 173.379 293.491 171.749 293.684 170.117C293.807 169.114 293.93 168.111 294.057 167.078C294.308 164.966 294.558 162.854 294.807 160.742C295.477 155.298 296.403 150.262 298 145C298.551 142.282 298.993 139.549 299.438 136.812C300.447 130.833 301.7 125.012 303.258 119.148C303.989 116.047 304.522 112.965 305.023 109.821C309.721 80.4955 309.721 80.4955 320 80.375Z" fill="#FAFAFA"/>
<path d="M78.3125 79.625C82.1026 80.1538 83.3811 81.1796 86 84C87.6565 87.2305 88.8502 90.5607 90 94C90.2784 94.8327 90.5569 95.6655 90.8438 96.5234C95.2796 110.585 97.1829 125.515 99.8782 139.996C100.633 144.047 101.399 148.095 102.176 152.141C104.515 164.453 106.239 176.788 107.675 189.238C108.097 192.827 108.552 196.413 109 200C89.53 200 70.06 200 50 200C50 192.593 50.0075 186.149 51.207 179.008C51.3331 178.215 51.4592 177.421 51.589 176.604C51.8545 174.945 52.1244 173.286 52.3987 171.628C52.8104 169.138 53.2081 166.645 53.6035 164.152C54.939 155.829 56.4353 147.574 58.261 139.342C59.0327 135.852 59.7542 132.355 60.4648 128.852C70.21 80.9389 70.21 80.9389 78.3125 79.625Z" fill="#FBFBFB"/>
<path d="M197 80.2383C200.598 80.3718 202.414 80.5116 205.25 82.875C209.838 91.0681 212.072 99.6782 214 108.812C214.383 110.59 214.383 110.59 214.775 112.403C215.53 115.933 216.269 119.465 217 123C217.202 123.971 217.403 124.941 217.611 125.941C219.811 136.664 221.526 147.39 222.924 158.245C223.747 164.513 224.897 170.586 226.305 176.75C227.958 184.48 229 192.097 229 200C209.2 200 189.4 200 169 200C170.112 186.656 170.112 186.656 171.312 180.875C173.008 172.397 174.286 163.863 175.554 155.312C176.391 149.724 177.308 144.178 178.453 138.645C179.091 135.562 179.693 132.473 180.297 129.383C182.556 118.015 184.837 106.684 188.125 95.5625C188.354 94.7718 188.583 93.9811 188.819 93.1665C192.261 82.0432 192.261 82.0432 197 80.2383Z" fill="#FBFBFB"/>
<path d="M230 200C249.47 200 268.94 200 289 200C287.874 218.023 287.874 218.023 286.914 224.141C286.812 224.8 286.709 225.459 286.604 226.138C286.39 227.499 286.174 228.86 285.953 230.22C285.623 232.262 285.307 234.307 284.992 236.352C283.917 243.209 282.585 249.919 280.821 256.636C279.783 260.889 278.935 265.168 278.098 269.465C277.932 270.312 277.766 271.16 277.596 272.033C276.91 275.55 276.229 279.069 275.555 282.589C269.595 313.632 269.595 313.632 263 319C259.437 319.688 259.437 319.688 256 319C251.689 315.288 250.551 310.273 249 305C248.557 303.538 248.557 303.538 248.106 302.047C245.346 292.719 243.284 283.344 241.375 273.812C241.073 272.331 240.771 270.85 240.469 269.369C236.164 248.219 236.164 248.219 235.125 238.688C234.239 230.957 232.838 223.344 231.321 215.714C231.15 214.828 230.98 213.943 230.805 213.031C230.65 212.253 230.495 211.475 230.335 210.674C229.892 207.142 230 203.56 230 200Z" fill="#FCFCFC"/>
<path d="M110 200C129.47 200 148.94 200 169 200C166.636 223.644 166.636 223.644 165.25 232.5C165.085 233.566 164.92 234.632 164.75 235.73C162.849 247.581 160.266 259.279 157.66 270.99C156.312 277.137 155.059 283.257 154.25 289.5C153.351 294.984 151.841 300.164 150.125 305.438C149.88 306.207 149.636 306.977 149.384 307.77C147.9 312.17 146.37 315.663 143 319C139.5 319.625 139.5 319.625 136 319C126.947 309.399 125.374 294.469 123 282C122.648 280.229 122.294 278.458 121.938 276.688C121.8 275.983 121.662 275.278 121.52 274.552C121.167 272.821 120.793 271.094 120.399 269.372C117.904 258.337 116.137 247.19 114.356 236.021C113.81 232.61 113.254 229.202 112.697 225.793C112.346 223.604 111.995 221.415 111.645 219.227C111.396 217.714 111.396 217.714 111.143 216.171C110.992 215.215 110.842 214.26 110.687 213.276C110.554 212.448 110.421 211.619 110.284 210.766C109.917 207.195 110 203.59 110 200Z" fill="#FCFCFC"/>
</g>
<defs>
<clipPath id="clip0_1_4">
<rect width="400" height="400" fill="white"/>
</clipPath>
</defs>
</svg>
